<?xml version="1.0" encoding="utf-8"?>
<svg viewBox="0 0 500 500" xmlns="http://www.w3.org/2000/svg">
  <g transform="matrix(0.463824, 0, 0, 0.463824, -17.949646, 2.685248)">
    <g transform="matrix(1, 0, 0, 1, 596.581177, 536.581177)" id="aa1059c3-949c-408f-9e11-decdc305bdb7"/>
    <g transform="matrix(3.677665, 0, 0, 3.507493, 578.30658, 533.194336)" style="">
      <polygon style="stroke: none; stroke-width: 1; stroke-dasharray: none; stroke-linecap: butt; stroke-dashoffset: 0; stroke-linejoin: miter; stroke-miterlimit: 4; fill: rgb(232,232,232); fill-rule: nonzero; opacity: 1;" vector-effect="non-scaling-stroke" points="68.23,-151.59 -118.75,-151.59 -118.75,151.59 118.75,151.59 118.75,-101.07 "/>
    </g>
    <g transform="matrix(3.677665, 0, 0, 3.507493, 594.089905, 426.986389)" style="">
      <path style="stroke: none; stroke-width: 1; stroke-dasharray: none; stroke-linecap: butt; stroke-dashoffset: 0; stroke-linejoin: miter; stroke-miterlimit: 4; fill: rgb(251,52,73); fill-rule: nonzero; opacity: 1;" vector-effect="non-scaling-stroke" transform=" translate(-155.89, -121.3)" d="M 230.013 149.935 C 226.37 143.442 213.782 141.40200000000002 208.007 140.484 C 203.455 139.76000000000002 198.808 139.544 194.204 139.548 C 190.589 139.524 187.02700000000002 139.702 183.511 139.90200000000002 C 182.215 139.989 180.932 140.10100000000003 179.65 140.21200000000002 C 178.336 138.852 177.066 137.44700000000003 175.83700000000002 136.01000000000002 C 168.01700000000002 126.75300000000001 161.70300000000003 116.25500000000002 156.55800000000002 105.34600000000002 C 157.92400000000004 100.07500000000002 159.01700000000002 94.57400000000001 159.67700000000002 88.86100000000002 C 160.88200000000003 78.43400000000003 161.29600000000002 66.55100000000002 157.389 56.61000000000002 C 156.04000000000002 53.17900000000002 152.443 49.002000000000024 148.293 51.08200000000002 C 143.52200000000002 53.474000000000025 142.18 60.25100000000002 141.791 65.05500000000002 C 141.478 68.93800000000002 141.697 72.83100000000002 142.349 76.64900000000002 C 143.01299999999998 80.49300000000001 144.082 84.14300000000001 145.24599999999998 87.78800000000001 C 146.332 91.13000000000001 147.52899999999997 94.44600000000001 148.83399999999997 97.73100000000001 C 148.00599999999997 100.31700000000001 147.12699999999998 102.858 146.20399999999998 105.334 C 144.052 110.977 141.72499999999997 116.33800000000001 139.48699999999997 121.495 C 138.30699999999996 124.052 137.15199999999996 126.555 136.02199999999996 129.002 C 132.44599999999997 136.857 128.56399999999996 144.568 124.20699999999997 152.02200000000002 C 114.04399999999997 155.60700000000003 104.92399999999996 159.76300000000003 97.34999999999997 164.64700000000002 C 93.28699999999996 167.27200000000002 89.69799999999996 170.12300000000002 86.70899999999996 173.25000000000003 C 83.88699999999996 176.20200000000003 81.01899999999996 180.03300000000002 80.76799999999996 184.27400000000003 C 80.62699999999995 186.66800000000003 81.57499999999996 188.99100000000004 83.53599999999996 190.41100000000003 C 86.23299999999996 192.42600000000002 89.80699999999996 192.29200000000003 92.93599999999996 191.63600000000002 C 103.18599999999996 189.48600000000002 111.05699999999996 180.675 117.75999999999996 173.24900000000002 C 122.37699999999997 168.13400000000001 127.63199999999996 161.639 133.12899999999996 153.78400000000002 C 133.14099999999996 153.76600000000002 133.15299999999996 153.74800000000002 133.16599999999997 153.73000000000002 C 142.59399999999997 150.80700000000002 152.85499999999996 148.33900000000003 163.74499999999998 146.525 C 168.71999999999997 145.70000000000002 173.82699999999997 145.025 179.03599999999997 144.55100000000002 C 182.69899999999998 147.98200000000003 186.65699999999998 151.10600000000002 190.97499999999997 153.715 C 194.33799999999997 155.784 197.91499999999996 157.531 201.65899999999996 158.834 C 205.44499999999996 160.071 209.25399999999996 161.08100000000002 213.18699999999995 161.72 C 215.17299999999994 162.004 217.20399999999995 162.133 219.27899999999997 162.055 C 223.90999999999997 161.88 230.55699999999996 160.104 230.99299999999997 154.485 C 231.127 152.765 230.756 151.257 230.013 149.935 z M 119.144 160.245 C 116.97500000000001 163.60500000000002 114.88300000000001 166.627 112.912 169.286 C 108.08500000000001 175.854 102.572 183.655 94.59 186.572 C 93.074 187.126 91.078 187.698 88.974 187.574 C 87.10000000000001 187.464 85.25200000000001 186.637 85.337 184.50900000000001 C 85.379 183.395 85.924 181.97400000000002 86.76 180.578 C 87.67500000000001 179.047 88.808 177.643 90.03500000000001 176.352 C 92.66400000000002 173.59 95.98800000000001 170.913 99.81200000000001 168.434 C 105.677 164.629 112.67900000000002 161.204 120.48400000000001 158.148 C 120.035 158.858 119.587 159.564 119.144 160.245 z M 146.366 75.985 C 145.764 72.471 145.673 68.908 146.043 65.482 C 146.227 63.769 146.576 62.097 147.08100000000002 60.53 C 147.50900000000001 59.2 148.43300000000002 55.954 149.907 55.537 C 152.33700000000002 54.849 153.084 60.066 153.359 61.542 C 154.925 69.938 153.54500000000002 79.275 151.666 87.511 C 151.367 88.821 151.034 90.11 150.69299999999998 91.39399999999999 C 150.111 89.79299999999999 149.55599999999998 88.187 149.045 86.573 C 147.945 83.048 146.939 79.482 146.366 75.985 z M 163.049 142.265 C 153.919 143.74499999999998 145.234 145.684 137.07 147.97299999999998 C 138.053 147.69799999999998 142.545 139.18499999999997 143.547 137.41799999999998 C 148.268 129.10299999999998 152.13 120.37599999999998 154.905 111.22099999999998 C 159.805 120.91199999999998 165.752 130.18299999999996 173.058 138.43499999999997 C 173.731 139.18399999999997 174.415 139.92399999999998 175.111 140.65499999999997 C 171.017 141.096 166.988 141.633 163.049 142.265 z M 224.793 153.959 C 224.459 155.764 220.604 156.796 218.805 157.08 C 213.489 157.91600000000003 207.865 157.247 202.77700000000002 155.538 C 199.286 154.366 195.919 152.77 192.72000000000003 150.85000000000002 C 189.54000000000002 148.92900000000003 186.56500000000003 146.669 183.78400000000002 144.17700000000002 C 187.21300000000002 143.97100000000003 190.68400000000003 143.836 194.17200000000003 143.90200000000002 C 197.66000000000003 143.937 201.175 144.11300000000003 204.64700000000002 144.566 C 211.15800000000002 145.292 218.454 147.52700000000002 223.579 151.752 C 224.588 152.585 224.91 153.321 224.793 153.959 z" stroke-linecap="round"/>
    </g>
    <g transform="matrix(3.677665, 0, 0, 3.507493, 499.821869, 46.038071)" style="">
      <polygon style="stroke: none; stroke-width: 1; stroke-dasharray: none; stroke-linecap: butt; stroke-dashoffset: 0; stroke-linejoin: miter; stroke-miterlimit: 4; fill: rgb(251,52,73); fill-rule: nonzero; opacity: 1;" vector-effect="non-scaling-stroke" points="97.4,12.63 -97.4,12.63 -97.4,-12.63 89.58,-12.63 "/>
    </g>
    <g transform="matrix(3.677665, 0, 0, 3.507493, 921.945313, 90.320175)" style="">
      <polygon style="stroke: none; stroke-width: 1; stroke-dasharray: none; stroke-linecap: butt; stroke-dashoffset: 0; stroke-linejoin: miter; stroke-miterlimit: 4; fill: rgb(209,211,211); fill-rule: nonzero; opacity: 1;" vector-effect="non-scaling-stroke" points="-25.26,25.26 25.26,25.26 -25.26,-25.26 "/>
    </g>
    <g transform="matrix(3.552289, 0, 0, 3.38792, 578.30658, 533.194397)" style="">
      <path style="stroke: none; stroke-width: 1; stroke-dasharray: none; stroke-linecap: butt; stroke-dashoffset: 0; stroke-linejoin: miter; stroke-miterlimit: 4; fill: rgb(51,62,72); fill-rule: nonzero; opacity: 1;" vector-effect="non-scaling-stroke" transform=" translate(-159.09, -159.09)" d="M 92.237 243.992 L 103.952 243.992 L 103.952 281.371 L 116.91499999999999 281.371 L 116.91499999999999 243.992 L 128.599 243.992 L 128.599 233.391 L 92.237 233.391 L 92.237 243.992 z M 158.856 281.371 L 171.62199999999999 281.371 L 171.62199999999999 263.354 L 185.99599999999998 263.354 L 185.99599999999998 252.951 L 171.62199999999999 252.951 L 171.62199999999999 243.795 L 187.21099999999998 243.795 L 187.21099999999998 233.392 L 158.85699999999997 233.392 L 158.85699999999997 281.371 L 158.856 281.371 z M 283.149 52.723 L 232.625 2.197 C 231.218 0.79 229.311 0 227.321 0 L 40.342 0 C 36.199 0 32.842 3.358 32.842 7.5 L 32.842 310.688 C 32.842 314.83099999999996 36.199 318.188 40.342 318.188 L 277.846 318.188 C 281.989 318.188 285.346 314.83099999999996 285.346 310.688 L 285.346 58.025 C 285.346 56.036 284.556 54.129 283.149 52.723 z M 234.821 25.606 L 259.739 50.525000000000006 L 234.82099999999997 50.525000000000006 L 234.821 25.606 L 234.821 25.606 z M 47.842 15 L 219.82100000000003 15 L 219.82100000000003 25.262999999999998 L 47.842 25.262999999999998 L 47.842 15 z M 270.346 303.188 L 47.842 303.188 L 47.842 40.263 L 219.82100000000003 40.263 L 219.82100000000003 58.025999999999996 C 219.82100000000003 62.169 223.17800000000003 65.526 227.32100000000003 65.526 L 270.345 65.526 L 270.345 303.188 L 270.346 303.188 z M 195.087 281.371 L 207.85299999999998 281.371 L 207.85299999999998 263.354 L 222.22699999999998 263.354 L 222.22699999999998 252.951 L 207.85299999999998 252.951 L 207.85299999999998 243.795 L 223.44199999999998 243.795 L 223.44199999999998 233.392 L 195.08799999999997 233.392 L 195.08799999999997 281.371 L 195.087 281.371 z M 135.458 281.371 L 148.486 281.371 L 148.486 233.392 L 135.458 233.392 L 135.458 281.371 z" stroke-linecap="round"/>
    </g>
    <g transform="matrix(8.762317, 0, 0, 3.627067, 578.30658, 871.282227)" id="9316bb53-377c-40d4-b33f-c6fa1c20b8f5" style="">
      <rect style="stroke: rgb(0,0,0); stroke-width: 0; stroke-dasharray: none; stroke-linecap: butt; stroke-dashoffset: 0; stroke-linejoin: miter; stroke-miterlimit: 4; fill: rgb(232,232,232); fill-rule: nonzero; opacity: 1;" vector-effect="non-scaling-stroke" x="-33.0835" y="-33.0835" rx="0" ry="0" width="66.167" height="66.167"/>
    </g>
    <g transform="matrix(3.677665, 0, 0, 3.507493, 423.329224, 877.752502)" style="">
      <path style="stroke: none; stroke-width: 1; stroke-dasharray: none; stroke-linecap: butt; stroke-dashoffset: 0; stroke-linejoin: miter; stroke-miterlimit: 4; fill: rgb(51,62,72); fill-rule: nonzero; opacity: 1;" vector-effect="non-scaling-stroke" transform=" translate(-109.43, -249.88)" d="M 126.841 241.152 C 126.841 246.51299999999998 125.261 250.653 122.09899999999999 253.57299999999998 C 118.93699999999998 256.49399999999997 114.44699999999999 257.95399999999995 108.627 257.95399999999995 L 104.984 257.95399999999995 L 104.984 273.8709999999999 L 92.022 273.8709999999999 L 92.022 225.89199999999994 L 108.62800000000001 225.89199999999994 C 114.68800000000002 225.89199999999994 119.23900000000002 227.21599999999995 122.28000000000002 229.86299999999994 C 125.321 232.51 126.841 236.273 126.841 241.152 z M 104.985 247.387 L 107.348 247.387 C 109.295 247.387 110.843 246.841 111.992 245.746 C 113.141 244.65200000000002 113.715 243.142 113.715 241.217 C 113.715 237.979 111.921 236.36 108.333 236.36 L 104.985 236.36 C 104.985 236.36 104.985 247.387 104.985 247.387 z" stroke-linecap="round"/>
    </g>
    <g transform="matrix(3.677665, 0, 0, 3.507493, 590.286804, 877.752502)" style="">
      <path style="stroke: none; stroke-width: 1; stroke-dasharray: none; stroke-linecap: butt; stroke-dashoffset: 0; stroke-linejoin: miter; stroke-miterlimit: 4; fill: rgb(51,62,72); fill-rule: nonzero; opacity: 1;" vector-effect="non-scaling-stroke" transform=" translate(-154.85, -249.88)" d="M 175.215 248.864 C 175.215 256.871 173.01 263.041 168.602 267.373 C 164.19400000000002 271.705 157.996 273.871 150.011 273.871 L 134.488 273.871 L 134.488 225.892 L 151.094 225.892 C 158.795 225.892 164.74 227.861 168.93 231.799 C 173.119 235.737 175.215 241.426 175.215 248.864 z M 161.76 249.324 C 161.76 244.92600000000002 160.89 241.667 159.15099999999998 239.544 C 157.41199999999998 237.42200000000003 154.76999999999998 236.36100000000002 151.225 236.36100000000002 L 147.452 236.36100000000002 L 147.452 263.238 L 150.34 263.238 C 154.279 263.238 157.166 262.095 159.004 259.808 C 160.841 257.523 161.76 254.028 161.76 249.324 z" stroke-linecap="round"/>
    </g>
    <g transform="matrix(3.677665, 0, 0, 3.507493, 748.844299, 877.752502)" style="">
      <path style="stroke: none; stroke-width: 1; stroke-dasharray: none; stroke-linecap: butt; stroke-dashoffset: 0; stroke-linejoin: miter; stroke-miterlimit: 4; fill: rgb(51,62,72); fill-rule: nonzero; opacity: 1;" vector-effect="non-scaling-stroke" transform=" translate(-197.99, -249.88)" d="M 196.579 273.871 L 183.81300000000002 273.871 L 183.81300000000002 225.892 L 212.168 225.892 L 212.168 236.295 L 196.579 236.295 L 196.579 245.451 L 210.953 245.451 L 210.953 255.85399999999998 L 196.579 255.85399999999998 L 196.579 273.871 L 196.579 273.871 z" stroke-linecap="round"/>
    </g>
  </g>
</svg>