<?xml version="1.0" encoding="utf-8"?>
<svg viewBox="52.511 0 396.785 500" xmlns="http://www.w3.org/2000/svg">
  <g transform="matrix(1.649142, 0, 0, 1.649142, -1.443614, -0.000054)">
    <polygon style="fill:#E8E8E8;" points="219.821,0 32.842,0 32.842,303.188 270.346,303.188 270.346,50.525 &#9;"/>
    <path style="fill:#FB3449;" d="M230.013,149.935c-3.643-6.493-16.231-8.533-22.006-9.451c-4.552-0.724-9.199-0.94-13.803-0.936 c-3.615-0.024-7.177,0.154-10.693,0.354c-1.296,0.087-2.579,0.199-3.861,0.31c-1.314-1.36-2.584-2.765-3.813-4.202 c-7.82-9.257-14.134-19.755-19.279-30.664c1.366-5.271,2.459-10.772,3.119-16.485c1.205-10.427,1.619-22.31-2.288-32.251 c-1.349-3.431-4.946-7.608-9.096-5.528c-4.771,2.392-6.113,9.169-6.502,13.973c-0.313,3.883-0.094,7.776,0.558,11.594 c0.664,3.844,1.733,7.494,2.897,11.139c1.086,3.342,2.283,6.658,3.588,9.943c-0.828,2.586-1.707,5.127-2.63,7.603 c-2.152,5.643-4.479,11.004-6.717,16.161c-1.18,2.557-2.335,5.06-3.465,7.507c-3.576,7.855-7.458,15.566-11.815,23.02 c-10.163,3.585-19.283,7.741-26.857,12.625c-4.063,2.625-7.652,5.476-10.641,8.603c-2.822,2.952-5.69,6.783-5.941,11.024 c-0.141,2.394,0.807,4.717,2.768,6.137c2.697,2.015,6.271,1.881,9.4,1.225c10.25-2.15,18.121-10.961,24.824-18.387 c4.617-5.115,9.872-11.61,15.369-19.465c0.012-0.018,0.024-0.036,0.037-0.054c9.428-2.923,19.689-5.391,30.579-7.205 c4.975-0.825,10.082-1.5,15.291-1.974c3.663,3.431,7.621,6.555,11.939,9.164c3.363,2.069,6.94,3.816,10.684,5.119 c3.786,1.237,7.595,2.247,11.528,2.886c1.986,0.284,4.017,0.413,6.092,0.335c4.631-0.175,11.278-1.951,11.714-7.57 C231.127,152.765,230.756,151.257,230.013,149.935z M119.144,160.245c-2.169,3.36-4.261,6.382-6.232,9.041 c-4.827,6.568-10.34,14.369-18.322,17.286c-1.516,0.554-3.512,1.126-5.616,1.002c-1.874-0.11-3.722-0.937-3.637-3.065 c0.042-1.114,0.587-2.535,1.423-3.931c0.915-1.531,2.048-2.935,3.275-4.226c2.629-2.762,5.953-5.439,9.777-7.918 c5.865-3.805,12.867-7.23,20.672-10.286C120.035,158.858,119.587,159.564,119.144,160.245z M146.366,75.985 c-0.602-3.514-0.693-7.077-0.323-10.503c0.184-1.713,0.533-3.385,1.038-4.952c0.428-1.33,1.352-4.576,2.826-4.993 c2.43-0.688,3.177,4.529,3.452,6.005c1.566,8.396,0.186,17.733-1.693,25.969c-0.299,1.31-0.632,2.599-0.973,3.883 c-0.582-1.601-1.137-3.207-1.648-4.821C147.945,83.048,146.939,79.482,146.366,75.985z M163.049,142.265 c-9.13,1.48-17.815,3.419-25.979,5.708c0.983-0.275,5.475-8.788,6.477-10.555c4.721-8.315,8.583-17.042,11.358-26.197 c4.9,9.691,10.847,18.962,18.153,27.214c0.673,0.749,1.357,1.489,2.053,2.22C171.017,141.096,166.988,141.633,163.049,142.265z M224.793,153.959c-0.334,1.805-4.189,2.837-5.988,3.121c-5.316,0.836-10.94,0.167-16.028-1.542 c-3.491-1.172-6.858-2.768-10.057-4.688c-3.18-1.921-6.155-4.181-8.936-6.673c3.429-0.206,6.9-0.341,10.388-0.275 c3.488,0.035,7.003,0.211,10.475,0.664c6.511,0.726,13.807,2.961,18.932,7.186C224.588,152.585,224.91,153.321,224.793,153.959z"/>
    <polygon style="fill: rgb(251, 52, 73);" points="227.64 25.263 40.63 25.263 40.63 7.269 220.134 7.269"/>
    <polygon style="fill:#D1D3D3;" points="219.821,50.525 270.346,50.525 219.821,0 &#9;"/>
    <path style="fill: rgb(51, 62, 72); paint-order: stroke; stroke: rgba(187, 218, 85, 0);" d="M 102.289 264.698 C 102.289 267.679 101.852 269.785 100.976 271.014 C 100.1 272.245 98.641 272.859 96.598 272.859 C 95.723 272.859 94.91 272.781 94.16 272.625 C 93.408 272.468 92.701 272.328 92.034 272.203 L 92.034 281.803 C 94.057 282.24 96.193 282.459 98.444 282.459 C 103.864 282.459 107.93 280.869 110.64 277.69 C 113.35 274.511 114.705 269.826 114.705 263.635 L 114.705 222.388 L 102.291 222.388 L 102.291 264.698 L 102.289 264.698 Z M 153.416 226.173 C 150.519 223.651 146.182 222.389 140.408 222.389 L 124.585 222.389 L 124.585 268.106 L 136.937 268.106 L 136.937 252.939 L 140.408 252.939 C 145.954 252.939 150.232 251.548 153.245 248.765 C 156.256 245.983 157.764 242.037 157.764 236.93 C 157.764 232.281 156.314 228.695 153.416 226.173 Z M 143.613 241.308 C 142.519 242.35 141.045 242.872 139.188 242.872 L 136.937 242.872 L 136.937 232.366 L 140.127 232.366 C 143.546 232.366 145.256 233.908 145.256 236.994 C 145.255 238.827 144.708 240.266 143.613 241.308 Z M 183.404 250.877 L 191.565 250.877 L 191.565 258.037 C 190.023 258.393 188.333 258.569 186.5 258.569 C 183.143 258.569 180.574 257.448 178.791 255.207 C 177.009 252.966 176.117 249.709 176.117 245.435 C 176.117 241.079 177.102 237.727 179.073 235.381 C 181.043 233.036 183.831 231.864 187.437 231.864 C 191.377 231.864 194.994 232.677 198.288 234.302 L 202.198 224.608 C 200.301 223.775 198.075 223.087 195.521 222.544 C 192.967 222.003 190.252 221.732 187.375 221.732 C 179.787 221.732 173.887 223.785 169.676 227.892 C 165.466 231.999 163.36 237.742 163.36 245.123 C 163.36 252.69 165.283 258.517 169.13 262.603 C 172.976 266.688 178.422 268.731 185.468 268.731 C 191.888 268.731 197.778 267.814 203.136 265.98 L 203.136 241.339 L 183.404 241.339 L 183.404 250.877 Z M 271.224 50.236 L 223.082 2.093 C 221.741 0.753 219.924 0 218.028 0 L 39.864 0 C 35.917 0 32.717 3.199 32.717 7.146 L 32.717 296.041 C 32.717 299.988 35.917 303.188 39.864 303.188 L 266.171 303.188 C 270.119 303.188 273.318 299.988 273.318 296.041 L 273.318 55.289 C 273.318 53.394 272.565 51.577 271.224 50.236 Z M 225.174 24.399 L 248.918 48.143 L 225.174 48.143 L 225.174 24.399 Z M 47.01 14.292 L 210.882 14.292 L 210.882 24.072 L 47.01 24.072 L 47.01 14.292 Z M 259.025 288.895 L 47.01 288.895 L 47.01 38.365 L 210.882 38.365 L 210.882 55.29 C 210.882 59.237 214.08 62.437 218.028 62.437 L 259.024 62.437 L 259.024 288.895 L 259.025 288.895 Z"/>
    <rect x="59.436" y="210.092" width="181.913" height="72.691" style="paint-order: fill; fill-rule: nonzero; stroke: rgba(159, 118, 111, 0); fill: rgb(232, 232, 232);"/>
    <g transform="matrix(1, 0, 0, 1, 0, -4.244632)">
      <path style="fill: rgb(51, 62, 72);" d="M126.841,241.152c0,5.361-1.58,9.501-4.742,12.421c-3.162,2.921-7.652,4.381-13.472,4.381h-3.643 v15.917H92.022v-47.979h16.606c6.06,0,10.611,1.324,13.652,3.971C125.321,232.51,126.841,236.273,126.841,241.152z M104.985,247.387h2.363c1.947,0,3.495-0.546,4.644-1.641c1.149-1.094,1.723-2.604,1.723-4.529c0-3.238-1.794-4.857-5.382-4.857 h-3.348C104.985,236.36,104.985,247.387,104.985,247.387z"/>
      <path style="fill: rgb(51, 62, 72);" d="M175.215,248.864c0,8.007-2.205,14.177-6.613,18.509s-10.606,6.498-18.591,6.498h-15.523v-47.979 h16.606c7.701,0,13.646,1.969,17.836,5.907C173.119,235.737,175.215,241.426,175.215,248.864z M161.76,249.324 c0-4.398-0.87-7.657-2.609-9.78c-1.739-2.122-4.381-3.183-7.926-3.183h-3.773v26.877h2.888c3.939,0,6.826-1.143,8.664-3.43 C160.841,257.523,161.76,254.028,161.76,249.324z"/>
      <path style="fill: rgb(51, 62, 72);" d="M196.579,273.871h-12.766v-47.979h28.355v10.403h-15.589v9.156h14.374v10.403h-14.374 L196.579,273.871L196.579,273.871z"/>
    </g>
  </g>
</svg>